<?xml version="1.0" encoding="utf-8"?>
<!-- Generator: Adobe Illustrator 22.1.0, SVG Export Plug-In . SVG Version: 6.00 Build 0)  -->
<svg version="1.1" id="Layer_1" xmlns="http://www.w3.org/2000/svg" xmlns:xlink="http://www.w3.org/1999/xlink" x="0px" y="0px"
	 viewBox="0 0 1058 684" style="enable-background:new 0 0 1058 684;" xml:space="preserve">
<style type="text/css">
	.st0{fill:#FFFFFF;}
</style>
<g>
	<path class="st0" d="M550.7,155.2c-4.5-3.5-12.9-5.2-25.2-5.2h-10.2v48h10.2c12.2,0,20.6-1.7,25.1-5.2c4.5-3.5,6.8-9.7,6.8-18.7
		C557.4,164.9,555.2,158.7,550.7,155.2z"/>
	<path class="st0" d="M845,154.7c-4.3-3.2-12.9-4.8-25.8-4.8H809v43.6h10.2c12.9,0,21.5-1.6,25.8-4.8c4.3-3.2,6.5-8.9,6.5-17.1
		C851.5,163.6,849.4,157.9,845,154.7z"/>
	<path class="st0" d="M0,0v684h1058V0H0z M620.6,121.7h112.2v32.1h-75.3v29.8h51.4v32.1h-51.4v40.2h80.1V288H620.6V121.7z
		 M315.7,121.7h36.9v104c0,13.5,1.6,22.7,4.9,27.3c3.3,4.7,9.2,7,17.7,7c8.6,0,14.5-2.3,17.8-6.9c3.3-4.6,4.9-13.8,4.9-27.4v-104
		h36.9v112.4c0,19.6-4.9,34.2-14.7,43.7c-9.8,9.5-24.8,14.3-45,14.3c-20.1,0-35-4.8-44.8-14.4c-9.8-9.6-14.7-24.1-14.7-43.6V121.7z
		 M189.2,283.9c-10-5.6-18.5-14-25.5-25.2l28.7-20.2c5,8.1,10,14,15,17.5c5.1,3.6,10.8,5.3,17.3,5.3c6.2,0,11.3-1.6,15.1-4.9
		c3.8-3.3,5.8-7.4,5.8-12.5c0-4.6-1.5-8.6-4.5-12c-3-3.4-7.6-6.5-13.9-9.2c-2.1-0.9-5.3-2.1-9.4-3.8c-15.5-6.3-26.1-11.6-31.7-16
		c-6.1-4.7-10.7-10.3-13.8-16.6c-3.1-6.3-4.7-13.2-4.7-20.7c0-14.7,5-26.6,15-35.5c10-8.9,23.2-13.4,39.8-13.4
		c11.8,0,22.4,2.5,31.5,7.6c9.2,5.1,16.8,12.5,22.9,22.4l-26.4,18.9c-4.3-6.1-8.9-10.6-13.8-13.5c-4.9-3-10.3-4.4-16.2-4.4
		c-5.6,0-9.9,1.3-13,3.9c-3.1,2.6-4.7,6.1-4.7,10.7c0,4.2,1.5,8,4.6,11.2c3.1,3.3,8,6.4,14.7,9.3c2.7,1.2,6.7,2.9,12,5
		c14.7,6,24.6,11,29.7,15c5.7,4.5,10.1,10.1,13,16.7c3,6.6,4.5,13.8,4.5,21.8c0,15.3-5.3,27.6-15.8,37
		c-10.6,9.4-24.4,14.2-41.5,14.2C210.8,292.3,199.2,289.5,189.2,283.9z M359.6,577.2c-10.6,9.4-24.4,14.2-41.5,14.2
		c-13,0-24.6-2.8-34.6-8.4c-10-5.6-18.5-14-25.5-25.2l28.7-20.2c5,8.1,10,14,15,17.5c5.1,3.6,10.8,5.3,17.3,5.3
		c6.2,0,11.3-1.6,15.1-4.9c3.8-3.3,5.8-7.4,5.8-12.5c0-4.6-1.5-8.6-4.5-12c-3-3.4-7.6-6.5-13.9-9.2c-2.1-0.9-5.3-2.1-9.4-3.8
		c-15.5-6.3-26.1-11.6-31.7-16c-6.1-4.7-10.7-10.3-13.8-16.6c-3.1-6.3-4.7-13.2-4.7-20.7c0-14.7,5-26.6,15-35.5
		c10-8.9,23.2-13.4,39.8-13.4c11.8,0,22.4,2.5,31.5,7.6c9.2,5.1,16.8,12.5,22.9,22.4l-26.4,18.9c-4.3-6.1-8.9-10.6-13.8-13.5
		c-4.9-3-10.3-4.4-16.2-4.4c-5.6,0-9.9,1.3-13,3.9c-3.1,2.6-4.7,6.1-4.7,10.7c0,4.2,1.5,8,4.6,11.2c3.1,3.3,8,6.4,14.7,9.3
		c2.7,1.2,6.7,2.9,12,5c14.7,6,24.6,11,29.7,15c5.7,4.5,10.1,10.1,13,16.7c3,6.6,4.5,13.8,4.5,21.8
		C375.4,555.4,370.1,567.7,359.6,577.2z M496.8,587l-8.9-33.2h-50l-8.7,33.2h-35.8l47.8-166.3h43.5L532.6,587H496.8z M520.3,226.1
		h-5V288h-36.9V121.7h41.9c14.6,0,25.5,0.6,32.9,1.8c7.3,1.2,13.4,3.2,18.3,6c7.6,4.2,13.3,10.1,17.3,17.7c4,7.6,5.9,16.4,5.9,26.7
		c0,10.2-2,19.1-5.9,26.8c-4,7.6-9.7,13.5-17.3,17.8c-5,2.7-11.2,4.7-18.8,5.9C545.2,225.5,534.4,226.1,520.3,226.1z M666.7,587
		H557.1V420.7H594v134.2h72.7V587z M804.8,587H687.8V420.7H800v32.1h-75.3v29.8h51.4v32.1h-51.4v40.2h80.1V587z M853.6,288
		l-32.3-67.7H809V288h-36.9V121.7H814c14.9,0,25.9,0.5,33.2,1.6c7.2,1.1,13.2,2.9,18,5.4c7.6,4,13.3,9.6,17.3,16.8
		c4,7.2,5.9,15.6,5.9,25.3c0,11.2-2.6,20.6-7.8,28.4c-5.2,7.7-12.8,13.3-22.6,16.7l36.3,72.1H853.6z"/>
	<polygon class="st0" points="445.2,525.4 480.9,525.4 463.1,450.3 	"/>
</g>
</svg>
