

<svg width="639" height="417"
   xmlns="http://www.w3.org/2000/svg">
<style type="text/css">
	.st0{fill:#FF0072;}
</style>
<g>
	<path class="st0" d="M0,124.8L25.2,107c4.4,7.2,8.8,12.3,13.2,15.4c4.5,3.1,9.5,4.7,15.2,4.7c5.5,0,9.9-1.4,13.3-4.3
		c3.4-2.9,5.1-6.5,5.1-11c0-4-1.3-7.6-4-10.6s-6.7-5.7-12.3-8.1c-1.9-0.8-4.7-1.9-8.3-3.3c-13.7-5.5-22.9-10.2-27.8-14.1
		c-5.3-4.2-9.4-9-12.1-14.6S3.4,49.5,3.4,43c0-13,4.4-23.4,13.2-31.2C25.4,3.9,37,0,51.6,0C62,0,71.2,2.2,79.3,6.7
		c8.1,4.5,14.8,11,20.1,19.7L76.2,43c-3.8-5.3-7.8-9.3-12.2-11.9c-4.3-2.6-9.1-3.9-14.2-3.9c-4.9,0-8.7,1.1-11.5,3.4
		c-2.8,2.3-4.2,5.4-4.2,9.4c0,3.7,1.4,7,4.1,9.9c2.7,2.9,7,5.6,12.9,8.2c2.4,1,5.9,2.5,10.5,4.4c13,5.3,21.6,9.7,26.1,13.2
		c5,4,8.8,8.9,11.5,14.6c2.6,5.8,4,12.2,4,19.1c0,13.4-4.6,24.3-13.9,32.6s-21.4,12.5-36.5,12.5c-11.5,0-21.6-2.5-30.4-7.4
		C13.6,142,6.1,134.6,0,124.8z"/>
	<path class="st0" d="M166,4v91.4c0,11.9,1.4,19.9,4.3,24c2.9,4.1,8.1,6.2,15.6,6.2c7.6,0,12.8-2,15.7-6.1
		c2.9-4.1,4.3-12.1,4.3-24.1V4h32.4v98.8c0,17.3-4.3,30.1-12.9,38.4c-8.6,8.4-21.8,12.5-39.6,12.5c-17.6,0-30.8-4.2-39.4-12.6
		c-8.6-8.4-12.9-21.2-12.9-38.3V4H166z"/>
	<path class="st0" d="M276.8,4h36.8c12.8,0,22.5,0.5,28.9,1.6c6.4,1,11.8,2.8,16.1,5.3c6.6,3.7,11.7,8.9,15.2,15.5
		c3.5,6.6,5.2,14.5,5.2,23.4s-1.7,16.8-5.2,23.5c-3.5,6.7-8.5,11.9-15.2,15.6c-4.4,2.4-9.9,4.2-16.5,5.2s-16.1,1.6-28.5,1.6h-4.4
		v54.4h-32.4V4z M309.2,28.8V71h9c10.7,0,18.1-1.5,22.1-4.6c4-3.1,6-8.5,6-16.4c0-8-2-13.5-5.9-16.6c-3.9-3.1-11.3-4.6-22.1-4.6
		H309.2z"/>
	<path class="st0" d="M400.8,150.2V4h98.6v28.2h-66.2v26.2h45.2v28.2h-45.2V122h70.4v28.2H400.8z"/>
	<path class="st0" d="M534,4h36.8c13.1,0,22.8,0.5,29.2,1.4c6.3,0.9,11.6,2.5,15.9,4.7c6.6,3.5,11.7,8.4,15.2,14.8
		c3.5,6.3,5.2,13.8,5.2,22.2c0,9.8-2.3,18.1-6.9,25c-4.6,6.8-11.2,11.7-19.9,14.7l31.9,63.4h-35.7l-28.4-59.6h-10.8v59.6H534V4z
		 M566.4,28.8v38.4h9c11.3,0,18.9-1.4,22.7-4.2c3.8-2.8,5.7-7.8,5.7-15c0-7.2-1.9-12.1-5.7-14.9c-3.8-2.8-11.4-4.2-22.7-4.2H566.4z"
		/>
	<path class="st0" d="M81.5,389.8l25.2-17.8c4.4,7.2,8.8,12.3,13.2,15.4c4.5,3.1,9.5,4.7,15.2,4.7c5.5,0,9.9-1.4,13.3-4.3
		c3.4-2.9,5.1-6.5,5.1-11c0-4-1.3-7.6-4-10.6s-6.7-5.7-12.3-8.1c-1.9-0.8-4.7-1.9-8.3-3.3c-13.7-5.5-22.9-10.2-27.8-14.1
		c-5.3-4.2-9.4-9-12.1-14.6s-4.1-11.6-4.1-18.2c0-13,4.4-23.4,13.2-31.2s20.4-11.8,35-11.8c10.4,0,19.7,2.2,27.7,6.7
		c8.1,4.5,14.8,11,20.1,19.7L157.7,308c-3.8-5.3-7.8-9.3-12.2-11.9c-4.3-2.6-9.1-3.9-14.2-3.9c-4.9,0-8.7,1.1-11.5,3.4
		c-2.8,2.3-4.2,5.4-4.2,9.4c0,3.7,1.4,7,4.1,9.9c2.7,2.9,7,5.6,12.9,8.2c2.4,1,5.9,2.5,10.5,4.4c13,5.3,21.6,9.7,26.1,13.2
		c5,4,8.8,8.9,11.5,14.6s4,12.2,4,19.1c0,13.4-4.6,24.3-13.9,32.6s-21.4,12.5-36.5,12.5c-11.5,0-21.6-2.5-30.4-7.4
		C95.1,407,87.6,399.6,81.5,389.8z"/>
	<path class="st0" d="M291.5,415.6l-7.8-29.2h-43.9l-7.6,29.2h-31.4l42-146.2h38.3l42,146.2H291.5z M246.1,361.4h31.4l-15.6-66
		L246.1,361.4z"/>
	<path class="st0" d="M344.5,415.6V269.4h32.4v118h64v28.2H344.5z"/>
	<path class="st0" d="M459.4,415.6V269.4h98.6v28.2h-66.2v26.2h45.2V352h-45.2v35.4h70.4v28.2H459.4z"/>
</g>
</svg>
