<?xml version="1.0" encoding="utf-8"?>
<!-- Generator: Adobe Illustrator 22.1.0, SVG Export Plug-In . SVG Version: 6.00 Build 0)  -->
<svg id="logo1" width="1920" height="643"
   xmlns="http://www.w3.org/2000/svg">
<style type="text/css">
	.st0{fill:#FFFFFF;}
</style>
<g>
	<polygon class="st0" points="886.3,532.7 917.7,532.7 902.1,466.7 	"/>
	<path class="st0" d="M1238.3,204.4c-3.8-2.8-11.4-4.2-22.7-4.2h-9v38.3h9c11.3,0,18.9-1.4,22.7-4.2c3.8-2.8,5.7-7.8,5.7-15
		S1242.1,207.2,1238.3,204.4z"/>
	<path class="st0" d="M980.6,204.7c-3.9-3.1-11.3-4.6-22.1-4.6h-9.1v42.2h9c10.7,0,18.1-1.5,22.1-4.6c4-3.1,6-8.5,6-16.4
		C986.5,213.3,984.5,207.8,980.6,204.7z"/>
	<path class="st0" d="M0,0v643h1920V0H0z M1041,175.3h98.6v28.2h-66.2v26.2h45.2v28.2h-45.2v35.4h70.4v28.2H1041V175.3z
		 M662.6,318.4c-8.8-5.1-16.3-12.5-22.4-22.3l25.2-17.8c4.4,7.2,8.8,12.3,13.2,15.4c4.5,3.1,9.5,4.7,15.2,4.7
		c5.5,0,9.9-1.4,13.3-4.3c3.4-2.9,5.1-6.5,5.1-11c0-4-1.3-7.6-4-10.6s-6.7-5.7-12.3-8.1c-1.9-0.8-4.7-1.9-8.3-3.3
		c-13.7-5.5-22.9-10.2-27.8-14.1c-5.3-4.2-9.4-9-12.1-14.6c-2.7-5.6-4.1-11.6-4.1-18.1c0-13,4.4-23.4,13.2-31.2
		c8.8-7.9,20.4-11.8,35-11.8c10.4,0,19.6,2.2,27.7,6.7s14.8,11,20.1,19.7l-23.2,16.6c-3.8-5.3-7.8-9.3-12.2-11.9
		c-4.3-2.6-9.1-3.9-14.2-3.9c-4.9,0-8.7,1.1-11.5,3.4c-2.8,2.3-4.2,5.4-4.2,9.4c0,3.7,1.4,7,4.1,9.9c2.7,2.9,7,5.6,12.9,8.2
		c2.4,1,5.9,2.5,10.5,4.4c13,5.3,21.6,9.7,26.1,13.2c5,4,8.8,8.9,11.5,14.6c2.6,5.8,4,12.2,4,19.1c0,13.4-4.6,24.3-13.9,32.6
		s-21.4,12.5-36.5,12.5C681.5,325.8,671.4,323.3,662.6,318.4z M811,578.3c-9.3,8.3-21.4,12.5-36.5,12.5c-11.5,0-21.6-2.5-30.4-7.4
		c-8.8-5.1-16.3-12.5-22.4-22.3l25.2-17.8c4.4,7.2,8.8,12.3,13.2,15.4c4.5,3.1,9.5,4.7,15.2,4.7c5.5,0,9.9-1.4,13.3-4.3
		c3.4-2.9,5.1-6.5,5.1-11c0-4-1.3-7.6-4-10.6s-6.7-5.7-12.3-8.1c-1.9-0.8-4.7-1.9-8.3-3.3c-13.7-5.5-22.9-10.2-27.8-14.1
		c-5.3-4.2-9.4-9-12.1-14.6c-2.7-5.6-4.1-11.6-4.1-18.2c0-13,4.4-23.4,13.2-31.2s20.4-11.8,35-11.8c10.4,0,19.7,2.2,27.7,6.7
		c8.1,4.5,14.8,11,20.1,19.7l-23.2,16.7c-3.8-5.3-7.8-9.3-12.2-11.9c-4.3-2.6-9.1-3.9-14.2-3.9c-4.9,0-8.7,1.1-11.5,3.4
		s-4.2,5.4-4.2,9.4c0,3.7,1.4,7,4.1,9.9c2.7,2.9,7,5.6,12.9,8.2c2.4,1,5.9,2.5,10.5,4.4c13,5.3,21.6,9.7,26.1,13.2
		c5,4,8.8,8.9,11.5,14.6s4,12.2,4,19.1C824.9,559.1,820.3,570,811,578.3z M786.6,312.4c-8.6-8.4-12.9-21.2-12.9-38.3v-98.8h32.5
		v91.4c0,11.9,1.4,19.9,4.3,24c2.9,4.1,8.1,6.2,15.6,6.2c7.6,0,12.8-2,15.7-6.1c2.9-4.1,4.3-12.1,4.3-24.1v-91.4h32.4v98.8
		c0,17.3-4.3,30.1-12.9,38.4C857,320.9,843.8,325,826,325C808.4,325,795.2,320.8,786.6,312.4z M931.7,586.9L931.7,586.9l-7.8-29.2
		H880l-7.6,29.2H841l42-146.2h38.3l42,146.2H931.7z M953.8,267h-4.4v54.4H917V175.3h36.8c12.8,0,22.5,0.5,28.9,1.6
		c6.4,1,11.8,2.8,16.1,5.3c6.6,3.7,11.7,8.9,15.2,15.5c3.5,6.6,5.2,14.5,5.2,23.4c0,8.9-1.7,16.8-5.2,23.5s-8.5,11.9-15.2,15.6
		c-4.4,2.4-9.9,4.2-16.5,5.2C975.7,266.4,966.2,267,953.8,267z M1081.1,586.9h-96.4V440.7h32.4v118h64V586.9z M1202.4,586.9h-102.8
		V440.7h98.6v28.2H1132v26.2h45.2v28.2H1132v35.4h70.4V586.9z M1245.9,321.5l-28.4-59.6h-10.8v59.6h-32.5V175.3h36.8
		c13.1,0,22.8,0.5,29.2,1.4c6.3,0.9,11.6,2.5,15.9,4.7c6.6,3.5,11.7,8.4,15.2,14.8c3.5,6.3,5.2,13.8,5.2,22.2c0,9.8-2.3,18.1-6.9,25
		c-4.6,6.8-11.2,11.7-19.9,14.7l31.9,63.4H1245.9z"/>
</g>
</svg>
