<?xml version="1.0" encoding="utf-8"?>
<!-- Generator: Adobe Illustrator 22.1.0, SVG Export Plug-In . SVG Version: 6.00 Build 0)  -->
<svg id="logo1" width="644" height="422"
   xmlns="http://www.w3.org/2000/svg">
<style type="text/css">
	.st0{fill:#FFFFFF;}
</style>
<g>
	<path class="st0" d="M342.6,34.7c-3.9-3.1-11.3-4.6-22.1-4.6h-9.1v42.2h9c10.7,0,18.1-1.5,22.1-4.6c4-3.1,6-8.5,6-16.4
		C348.5,43.3,346.5,37.8,342.6,34.7z"/>
	<path class="st0" d="M600.3,34.4c-3.8-2.8-11.4-4.2-22.7-4.2h-9v38.3h9c11.3,0,18.9-1.4,22.7-4.2c3.8-2.8,5.7-7.8,5.7-15
		S604.1,37.2,600.3,34.4z"/>
	<polygon class="st0" points="248.3,362.7 279.7,362.7 264.1,296.7 	"/>
	<path class="st0" d="M-35.2-13v442.7h704V-13H-35.2z M403,5.3h98.6v28.2h-66.2v26.2h45.2v28.2h-45.2v35.4h70.4v28.2H403V5.3z
		 M24.6,148.4c-8.8-5.1-16.3-12.5-22.4-22.3l25.2-17.8c4.4,7.2,8.8,12.3,13.2,15.4c4.5,3.1,9.5,4.7,15.2,4.7c5.5,0,9.9-1.4,13.3-4.3
		c3.4-2.9,5.1-6.5,5.1-11c0-4-1.3-7.6-4-10.6s-6.7-5.7-12.3-8.1c-1.9-0.8-4.7-1.9-8.3-3.3C35.9,85.6,26.7,80.9,21.8,77
		c-5.3-4.2-9.4-9-12.1-14.6C7,56.8,5.6,50.8,5.6,44.3c0-13,4.4-23.4,13.2-31.2c8.8-7.9,20.4-11.8,35-11.8c10.4,0,19.6,2.2,27.7,6.7
		c8.1,4.5,14.8,11,20.1,19.7L78.4,44.3C74.6,39,70.6,35,66.2,32.4c-4.3-2.6-9.1-3.9-14.2-3.9c-4.9,0-8.7,1.1-11.5,3.4
		c-2.8,2.3-4.2,5.4-4.2,9.4c0,3.7,1.4,7,4.1,9.9c2.7,2.9,7,5.6,12.9,8.2c2.4,1,5.9,2.5,10.5,4.4c13,5.3,21.6,9.7,26.1,13.2
		c5,4,8.8,8.9,11.5,14.6c2.6,5.8,4,12.2,4,19.1c0,13.4-4.6,24.3-13.9,32.6S70.1,155.8,55,155.8C43.5,155.8,33.4,153.3,24.6,148.4z
		 M173,408.3c-9.3,8.3-21.4,12.5-36.5,12.5c-11.5,0-21.6-2.5-30.4-7.4c-8.8-5.1-16.3-12.5-22.4-22.3l25.2-17.8
		c4.4,7.2,8.8,12.3,13.2,15.4c4.5,3.1,9.5,4.7,15.2,4.7c5.5,0,9.9-1.4,13.3-4.3c3.4-2.9,5.1-6.5,5.1-11c0-4-1.3-7.6-4-10.6
		s-6.7-5.7-12.3-8.1c-1.9-0.8-4.7-1.9-8.3-3.3c-13.7-5.5-22.9-10.2-27.8-14.1c-5.3-4.2-9.4-9-12.1-14.6c-2.7-5.6-4.1-11.6-4.1-18.2
		c0-13,4.4-23.4,13.2-31.2c8.8-7.8,20.4-11.8,35-11.8c10.4,0,19.7,2.2,27.7,6.7c8.1,4.5,14.8,11,20.1,19.7l-23.2,16.7
		c-3.8-5.3-7.8-9.3-12.2-11.9c-4.3-2.6-9.1-3.9-14.2-3.9c-4.9,0-8.7,1.1-11.5,3.4c-2.8,2.3-4.2,5.4-4.2,9.4c0,3.7,1.4,7,4.1,9.9
		c2.7,2.9,7,5.6,12.9,8.2c2.4,1,5.9,2.5,10.5,4.4c13,5.3,21.6,9.7,26.1,13.2c5,4,8.8,8.9,11.5,14.6s4,12.2,4,19.1
		C186.9,389.1,182.3,400,173,408.3z M148.6,142.4c-8.6-8.4-12.9-21.2-12.9-38.3V5.3h32.5v91.4c0,11.9,1.4,19.9,4.3,24
		c2.9,4.1,8.1,6.2,15.6,6.2c7.6,0,12.8-2,15.7-6.1c2.9-4.1,4.3-12.1,4.3-24.1V5.3h32.4v98.8c0,17.3-4.3,30.1-12.9,38.4
		C219,150.9,205.8,155,188,155C170.4,155,157.2,150.8,148.6,142.4z M293.7,416.9L293.7,416.9l-7.8-29.2H242l-7.6,29.2H203l42-146.2
		h38.3l42,146.2H293.7z M315.8,97h-4.4v54.4H279V5.3h36.8c12.8,0,22.5,0.5,28.9,1.6c6.4,1,11.8,2.8,16.1,5.3
		c6.6,3.7,11.7,8.9,15.2,15.5c3.5,6.6,5.2,14.5,5.2,23.4c0,8.9-1.7,16.8-5.2,23.5s-8.5,11.9-15.2,15.6c-4.4,2.4-9.9,4.2-16.5,5.2
		C337.7,96.4,328.2,97,315.8,97z M443.1,416.9h-96.4V270.7h32.4v118h64V416.9z M564.4,416.9H461.6V270.7h98.6v28.2H494v26.2h45.2
		v28.2H494v35.4h70.4V416.9z M607.9,151.5l-28.4-59.6h-10.8v59.6h-32.5V5.3H573c13.1,0,22.8,0.5,29.2,1.4c6.3,0.9,11.6,2.5,15.9,4.7
		c6.6,3.5,11.7,8.4,15.2,14.8c3.5,6.3,5.2,13.8,5.2,22.2c0,9.8-2.3,18.1-6.9,25c-4.6,6.8-11.2,11.7-19.9,14.7l31.9,63.4H607.9z"/>
</g>
</svg>
